<?xml version="1.0" encoding="UTF-8" standalone="no"?>
<!-- Creator: CorelDRAW -->

<svg
   xmlns:dc="http://purl.org/dc/elements/1.1/"
   xmlns:cc="http://creativecommons.org/ns#"
   xmlns:rdf="http://www.w3.org/1999/02/22-rdf-syntax-ns#"
   xmlns:svg="http://www.w3.org/2000/svg"
   xmlns="http://www.w3.org/2000/svg"
   xmlns:sodipodi="http://sodipodi.sourceforge.net/DTD/sodipodi-0.dtd"
   xmlns:inkscape="http://www.inkscape.org/namespaces/inkscape"
   xml:space="preserve"
   width="69.79892mm"
   height="88.953499mm"
   style="clip-rule:evenodd;fill-rule:evenodd;image-rendering:optimizeQuality;shape-rendering:geometricPrecision;text-rendering:geometricPrecision"
   viewBox="0 0 69.79892 88.953499"
   version="1.1"
   id="svg323"
   sodipodi:docname="bear-8.svg"
   inkscape:version="0.92.3 (2405546, 2018-03-11)"><metadata
   id="metadata327"><rdf:RDF><cc:Work
       rdf:about=""><dc:format>image/svg+xml</dc:format><dc:type
         rdf:resource="http://purl.org/dc/dcmitype/StillImage" /><dc:title></dc:title></cc:Work></rdf:RDF></metadata><sodipodi:namedview
   pagecolor="#ffffff"
   bordercolor="#666666"
   borderopacity="1"
   objecttolerance="10"
   gridtolerance="10"
   guidetolerance="10"
   inkscape:pageopacity="0"
   inkscape:pageshadow="2"
   inkscape:window-width="1920"
   inkscape:window-height="1017"
   id="namedview325"
   showgrid="false"
   fit-margin-top="0"
   fit-margin-left="0"
   fit-margin-right="0"
   fit-margin-bottom="0"
   showborder="false"
   inkscape:zoom="2.5282404"
   inkscape:cx="131.90347"
   inkscape:cy="168.1011"
   inkscape:window-x="-4"
   inkscape:window-y="9"
   inkscape:window-maximized="1"
   inkscape:current-layer="svg323" />
 <defs
   id="defs4"><style
     type="text/css"
     id="style2">
   <![CDATA[
    .str0 {stroke:#1F1A17;stroke-width:0.0762}
    .str1 {stroke:black;stroke-width:2}
    .fil1 {fill:black}
    .fil4 {fill:#191919}
    .fil6 {fill:#6666FF}
    .fil7 {fill:#990000}
    .fil9 {fill:#CC99CC}
    .fil2 {fill:#FF9933}
    .fil3 {fill:#FFCC99}
    .fil8 {fill:#FFCCCC}
    .fil0 {fill:#FFFFCC}
    .fil5 {fill:white}
   ]]>
  </style></defs>
 <g
   id="_244053976"
   transform="translate(-70.10054,-195.463)">
   <path
   style="fill:#000000;stroke:#000000;stroke-width:2"
   inkscape:connector-curvature="0"
   d="m 84.6497,249.635 -8.9951,-4.7237 c -3.9994,-2.1003 -5.6858,-6.8132 -3.7542,-10.4916 1.9317,-3.6783 6.769,-4.9654 10.7684,-2.8652 l 8.9951,4.7237 c 0.9468,0.4972 1.7636,1.1412 2.4338,1.8829 0.1443,-0.1174 0.29,-0.2323 0.4376,-0.3452 -3.8492,-3.3493 -6.322,-8.4969 -6.322,-14.2529 0,-4.0196 1.2063,-7.7425 3.2446,-10.7635 -0.9569,0.4543 -2.0123,0.7072 -3.1204,0.7072 -4.3168,0 -7.8372,-3.8283 -7.8372,-8.5217 0,-4.6936 3.5204,-8.522 7.8372,-8.522 4.3172,0 7.8376,3.8284 7.8376,8.522 0,1.2804 -0.2627,2.4959 -0.7314,3.5874 2.7153,-2.0542 6.0101,-3.2611 9.5562,-3.2611 3.5457,0 6.8402,1.2066 9.5552,3.2604 -0.4686,-1.0914 -0.7312,-2.3066 -0.7312,-3.5868 0,-4.6936 3.5209,-8.5218 7.8378,-8.5218 4.3169,0 7.8378,3.8282 7.8378,8.5218 0,4.6937 -3.5209,8.5219 -7.8378,8.5219 -1.1078,0 -2.1628,-0.2528 -3.1196,-0.707 2.0382,3.021 3.2443,6.7437 3.2443,10.7632 0,5.756 -2.4733,10.9035 -6.3224,14.2528 0.1476,0.113 0.2939,0.2279 0.4383,0.3454 0.6703,-0.7417 1.487,-1.3858 2.4338,-1.883 l 8.9951,-4.7237 c 3.9994,-2.1002 8.8367,-0.8131 10.7684,2.8652 1.9316,3.6784 0.2452,8.3913 -3.7542,10.4916 l -8.9951,4.7237 c -0.778,0.4086 -1.5876,0.6885 -2.4015,0.8481 0.1949,1.1584 0.2971,2.3511 0.2971,3.5691 v 5.0798 c 0,1.2786 -0.1134,2.5291 -0.3277,3.7414 0.8672,0.1516 1.72,0.4323 2.535,0.8504 4.7373,2.4301 6.4464,8.6143 3.8038,13.7659 -2.6421,5.1517 -8.6621,7.3716 -13.4,4.9412 -2.0206,-1.0365 -3.4895,-2.7564 -4.3058,-4.7872 -2.0351,0.8559 -4.2441,1.327 -6.5512,1.327 -2.3157,0 -4.5329,-0.4745 -6.5742,-1.3365 0.008,0.003 0.0158,0.007 0.0238,0.0103 -0.8163,2.0307 -2.2853,3.7499 -4.306,4.7864 -4.7382,2.4305 -10.7581,0.211 -13.4007,-4.9408 -2.6426,-5.1518 -0.9333,-11.3359 3.805,-13.7663 0.8145,-0.4178 1.6671,-0.6978 2.5337,-0.8497 -0.2145,-1.2125 -0.3278,-2.4632 -0.3278,-3.7421 v -5.0798 c 0,-1.2181 0.1023,-2.4111 0.2972,-3.5696 -0.8138,-0.1595 -1.6233,-0.4391 -2.4013,-0.8476 z m 13.5551,27.904 c -0.1043,-0.0459 -0.1043,-0.0459 0,0 z"
   class="fil1 str1"
   id="_244055536" />
   <g
   id="g286">
    <g
   id="g261">
     <path
   style="fill:#ff9933;stroke:#1f1a17;stroke-width:0.0762"
   inkscape:connector-curvature="0"
   d="m 84.6497,249.635 -8.9951,-4.7237 c -3.9994,-2.1003 -5.6858,-6.8132 -3.7542,-10.4916 1.9317,-3.6783 6.769,-4.9654 10.7684,-2.8652 l 8.9951,4.7237 c 3.9994,2.1002 5.6858,6.8133 3.7542,10.4916 -1.9317,3.6784 -6.769,4.9654 -10.7684,2.8652 z"
   class="fil2 str0"
   id="_244055488" />
     <ellipse
   style="fill:#ffcc99;stroke:#1f1a17;stroke-width:0.0762"
   cy="0"
   cx="0"
   ry="19.8386"
   rx="18.246201"
   transform="matrix(0.171376,-0.326343,-0.326343,-0.171376,79.1617,238.233)"
   class="fil3 str0"
   id="_244055440" />
     <path
   style="fill:#191919;stroke:#1f1a17;stroke-width:0.0762"
   inkscape:connector-curvature="0"
   d="m 77.1527,239.632 c -1.5817,-0.6498 -3.0702,-1.4299 -4.4618,-2.343 -0.0729,-0.0383 -0.1036,-0.1242 -0.0684,-0.1913 0.0352,-0.0671 0.1234,-0.0905 0.1963,-0.0522 1.496,0.7397 2.9882,1.5112 4.4618,2.343 0.0729,0.0383 0.1036,0.1242 0.0684,0.1913 -0.0352,0.0671 -0.1234,0.0905 -0.1963,0.0522 z"
   class="fil4 str0"
   id="_244055392" />
     <path
   style="fill:#191919;stroke:#1f1a17;stroke-width:0.0762"
   inkscape:connector-curvature="0"
   d="m 78.9194,236.268 c -1.5816,-0.6498 -3.0702,-1.4299 -4.4617,-2.343 -0.0729,-0.0383 -0.1037,-0.1242 -0.0685,-0.1913 0.0353,-0.0671 0.1235,-0.0905 0.1964,-0.0523 1.4959,0.7398 2.9881,1.5113 4.4617,2.3431 0.0729,0.0383 0.1037,0.1242 0.0685,0.1913 -0.0353,0.067 -0.1235,0.0905 -0.1964,0.0522 z"
   class="fil4 str0"
   id="_244055344" />
     <path
   style="fill:#ff9933;stroke:#1f1a17;stroke-width:0.0762"
   inkscape:connector-curvature="0"
   d="m 125.35,249.635 8.9951,-4.7237 c 3.9994,-2.1003 5.6858,-6.8132 3.7542,-10.4916 -1.9317,-3.6783 -6.769,-4.9654 -10.7684,-2.8652 l -8.9951,4.7237 c -3.9994,2.1002 -5.6858,6.8133 -3.7542,10.4916 1.9317,3.6784 6.769,4.9654 10.7684,2.8652 z"
   class="fil2 str0"
   id="_244055296" />
     <ellipse
   style="fill:#ffcc99;stroke:#1f1a17;stroke-width:0.0762"
   cy="0"
   cx="0"
   ry="19.8386"
   rx="18.246201"
   transform="matrix(-0.171376,-0.326343,0.326343,-0.171376,130.838,238.233)"
   class="fil3 str0"
   id="_244055248" />
     <path
   style="fill:#191919;stroke:#1f1a17;stroke-width:0.0762"
   inkscape:connector-curvature="0"
   d="m 132.847,239.632 c 1.5817,-0.6498 3.0702,-1.4299 4.4618,-2.343 0.0729,-0.0383 0.1036,-0.1242 0.0684,-0.1913 -0.0352,-0.0671 -0.1234,-0.0905 -0.1963,-0.0522 -1.496,0.7397 -2.9882,1.5112 -4.4618,2.343 -0.0729,0.0383 -0.1036,0.1242 -0.0684,0.1913 0.0352,0.0671 0.1234,0.0905 0.1963,0.0522 z"
   class="fil4 str0"
   id="_244055200" />
     <path
   style="fill:#191919;stroke:#1f1a17;stroke-width:0.0762"
   inkscape:connector-curvature="0"
   d="m 131.081,236.268 c 1.5816,-0.6498 3.0702,-1.4299 4.4617,-2.343 0.0729,-0.0383 0.1037,-0.1242 0.0685,-0.1913 -0.0353,-0.0671 -0.1235,-0.0905 -0.1964,-0.0523 -1.4959,0.7398 -2.9881,1.5113 -4.4617,2.3431 -0.0729,0.0383 -0.1037,0.1242 -0.0685,0.1913 0.0353,0.067 0.1235,0.0905 0.1964,0.0522 z"
   class="fil4 str0"
   id="_244055152" />
    </g>
    <path
   style="fill:#ff9933;stroke:#1f1a17;stroke-width:0.0762"
   inkscape:connector-curvature="0"
   d="m 123.246,259.132 v -5.08 c 0,-10.9268 -8.1966,-19.8387 -18.2462,-19.8387 -10.0497,0 -18.2463,8.9119 -18.2463,19.8387 v 5.08 c 0,10.9267 8.1966,19.8386 18.2463,19.8386 10.0496,0 18.2462,-8.9119 18.2462,-19.8386 z"
   class="fil2 str0"
   id="_244055080" />
    <path
   style="fill:#ffcc99;stroke:#1f1a17;stroke-width:0.0762"
   inkscape:connector-curvature="0"
   d="m 117.914,253.31 v -3.5954 c 0,-7.7337 -5.8013,-14.0413 -12.9141,-14.0413 -7.1129,0 -12.9142,6.3076 -12.9142,14.0413 v 3.5954 c 0,7.7336 5.8013,14.0412 12.9142,14.0412 7.1128,0 12.9141,-6.3076 12.9141,-14.0412 z"
   class="fil3 str0"
   id="_244055032" />
    <ellipse
   style="fill:#ff9933;stroke:#1f1a17;stroke-width:0.0762"
   cy="0"
   cx="0"
   ry="19.8386"
   rx="18.246201"
   transform="matrix(-0.471483,-0.241845,0.241845,-0.471483,120.655,273.078)"
   class="fil2 str0"
   id="_244054984" />
    <ellipse
   style="fill:#ffcc99;stroke:#1f1a17;stroke-width:0.0762"
   cy="0"
   cx="0"
   ry="19.8386"
   rx="18.246201"
   transform="matrix(-0.381109,-0.195488,0.195488,-0.381109,121.318,271.785)"
   class="fil3 str0"
   id="_244054936" />
    <path
   style="fill:#191919;stroke:#1f1a17;stroke-width:0.0762"
   inkscape:connector-curvature="0"
   d="m 120.548,269.036 c 0.6347,-1.5878 1.4004,-3.0838 2.3001,-4.484 0.0376,-0.0733 0.1232,-0.1049 0.1906,-0.0703 0.0674,0.0345 0.0917,0.1225 0.0542,0.1958 -0.7254,1.503 -1.4825,3.0025 -2.3001,4.484 -0.0376,0.0733 -0.1232,0.1049 -0.1906,0.0703 -0.0674,-0.0346 -0.0917,-0.1225 -0.0542,-0.1958 z"
   class="fil4 str0"
   id="_244054888" />
    <path
   style="fill:#191919;stroke:#1f1a17;stroke-width:0.0762"
   inkscape:connector-curvature="0"
   d="m 123.929,270.771 c 0.6346,-1.5878 1.4003,-3.0838 2.3,-4.484 0.0376,-0.0733 0.1233,-0.1049 0.1907,-0.0703 0.0674,0.0346 0.0917,0.1225 0.0541,0.1958 -0.7254,1.503 -1.4825,3.0026 -2.3001,4.4841 -0.0376,0.0732 -0.1232,0.1048 -0.1906,0.0702 -0.0674,-0.0345 -0.0917,-0.1225 -0.0541,-0.1958 z"
   class="fil4 str0"
   id="_244054840" />
    <ellipse
   style="fill:#ff9933;stroke:#1f1a17;stroke-width:0.0762"
   cy="0"
   cx="0"
   ry="19.8386"
   rx="18.246201"
   transform="matrix(0.471483,-0.241845,-0.241845,-0.471483,89.3457,273.078)"
   class="fil2 str0"
   id="_244054792" />
    <ellipse
   style="fill:#ffcc99;stroke:#1f1a17;stroke-width:0.0762"
   cy="0"
   cx="0"
   ry="19.8386"
   rx="18.246201"
   transform="matrix(0.381109,-0.195488,-0.195488,-0.381109,88.6827,271.785)"
   class="fil3 str0"
   id="_244054744" />
    <path
   style="fill:#191919;stroke:#1f1a17;stroke-width:0.0762"
   inkscape:connector-curvature="0"
   d="m 89.4527,269.036 c -0.6347,-1.5878 -1.4004,-3.0838 -2.3001,-4.484 -0.0376,-0.0733 -0.1232,-0.1049 -0.1906,-0.0703 -0.0674,0.0345 -0.0917,0.1225 -0.0542,0.1958 0.7254,1.503 1.4825,3.0025 2.3001,4.484 0.0376,0.0733 0.1232,0.1049 0.1906,0.0703 0.0674,-0.0346 0.0917,-0.1225 0.0542,-0.1958 z"
   class="fil4 str0"
   id="_244054696" />
    <path
   style="fill:#191919;stroke:#1f1a17;stroke-width:0.0762"
   inkscape:connector-curvature="0"
   d="m 86.0715,270.771 c -0.6346,-1.5878 -1.4003,-3.0838 -2.3,-4.484 -0.0376,-0.0733 -0.1233,-0.1049 -0.1907,-0.0703 -0.0674,0.0346 -0.0917,0.1225 -0.0541,0.1958 0.7254,1.503 1.4825,3.0026 2.3001,4.4841 0.0376,0.0732 0.1232,0.1048 0.1906,0.0702 0.0674,-0.0345 0.0917,-0.1225 0.0541,-0.1958 z"
   class="fil4 str0"
   id="_244054648" />
    <ellipse
   style="fill:#ff9933;stroke:#1f1a17;stroke-width:0.0762"
   ry="8.5218"
   rx="7.83778"
   cy="204.985"
   cx="88.337502"
   class="fil2 str0"
   id="_244054600" />
    <ellipse
   style="fill:#ffcc99;stroke:#1f1a17;stroke-width:0.0762"
   ry="5.57337"
   rx="5.1260099"
   cy="207.005"
   cx="88.922302"
   class="fil3 str0"
   id="_244054552" />
    <ellipse
   style="fill:#ff9933;stroke:#1f1a17;stroke-width:0.0762"
   ry="8.5218"
   rx="7.83778"
   cy="204.985"
   cx="121.662"
   class="fil2 str0"
   id="_244054504" />
    <ellipse
   style="fill:#ffcc99;stroke:#1f1a17;stroke-width:0.0762"
   ry="5.57337"
   rx="5.1260099"
   cy="207.005"
   cx="121.077"
   class="fil3 str0"
   id="_244054456" />
    <ellipse
   style="fill:#ff9933;stroke:#1f1a17;stroke-width:0.0762"
   ry="18.251499"
   rx="16.786501"
   cy="223.563"
   cx="105"
   class="fil2 str0"
   id="_244054408" />
    <path
   style="fill:#ffffff;stroke:#1f1a17;stroke-width:0.0762"
   inkscape:connector-curvature="0"
   d="m 109.301,208.862 c 3.0085,0 5.4622,4.1549 5.4622,9.2492 0,5.0942 -2.4537,9.249 -5.4622,9.249 -1.7428,0 -3.2991,-1.3945 -4.3003,-3.5579 -1.0013,2.1634 -2.5581,3.5579 -4.3009,3.5579 -3.0085,0 -5.4622,-4.1548 -5.4622,-9.249 0,-5.0943 2.4537,-9.2492 5.4622,-9.2492 1.7428,0 3.2996,1.3941 4.3009,3.5575 1.0012,-2.1634 2.5575,-3.5575 4.3003,-3.5575 z"
   class="fil5 str0"
   id="_244054360" />
    <path
   style="fill:#ff9933;stroke:#1f1a17;stroke-width:0.0762"
   inkscape:connector-curvature="0"
   d="m 109.301,208.863 c 2.6071,0 4.7973,3.1207 5.3351,7.2691 -0.9414,-3.2159 -3.0028,-5.5108 -5.6618,-5.5108 -1.4594,0 -2.8035,0.694 -3.8625,1.8512 -0.0298,-0.0326 -0.0598,-0.0649 -0.09,-0.0968 1.002,-2.1381 2.5485,-3.5127 4.2792,-3.5127 z m -14.0557,8.7559 c 0.1522,-4.8666 2.5436,-8.7559 5.4541,-8.7559 1.7076,0 3.2369,1.338 4.24,3.4275 -1.0308,-1.0477 -2.3083,-1.6692 -3.6894,-1.6692 -3.0532,0 -5.3182,3.0259 -6.0047,6.9976 z"
   class="fil2 str0"
   id="_244054312" />
    <path
   style="fill:#6666ff;stroke:#1f1a17;stroke-width:0.0762"
   inkscape:connector-curvature="0"
   d="m 107.226,214.535 c -1.1573,0 -2.1023,1.889 -2.1023,4.2046 0,2.316 0.945,4.205 2.1023,4.205 0.5671,0 1.0828,-0.4534 1.4617,-1.1879 -0.1394,0.101 -0.3103,0.161 -0.495,0.161 -0.4661,0 -0.8463,-0.3802 -0.8463,-0.8466 0,-0.4661 0.3802,-0.8463 0.8463,-0.8463 0.4125,0 0.7575,0.2974 0.8317,0.6886 0.1929,-0.635 0.3043,-1.3792 0.3043,-2.1738 0,-2.3156 -0.9448,-4.2046 -2.1027,-4.2046 z"
   class="fil6 str0"
   id="_244054264" />
    <path
   style="fill:#6666ff;stroke:#1f1a17;stroke-width:0.0762"
   inkscape:connector-curvature="0"
   d="m 102.774,214.535 c -1.1573,0 -2.1023,1.889 -2.1023,4.2046 0,2.316 0.945,4.205 2.1023,4.205 0.5671,0 1.0828,-0.4534 1.4617,-1.1879 -0.1394,0.101 -0.3103,0.161 -0.495,0.161 -0.4661,0 -0.8463,-0.3802 -0.8463,-0.8466 0,-0.4661 0.3802,-0.8463 0.8463,-0.8463 0.4125,0 0.7575,0.2974 0.8317,0.6886 0.1929,-0.635 0.3043,-1.3792 0.3043,-2.1738 0,-2.3156 -0.9448,-4.2046 -2.1027,-4.2046 z"
   class="fil6 str0"
   id="_244054216" />
    <ellipse
   style="fill:#ffcc99;stroke:#1f1a17;stroke-width:0.0762"
   ry="8.1203899"
   rx="11.6776"
   cy="232.11099"
   cx="105"
   class="fil3 str0"
   id="_244054168" />
    <ellipse
   style="fill:#990000;stroke:#1f1a17;stroke-width:0.0762"
   ry="3.6791501"
   rx="7.5639"
   cy="228.259"
   cx="105"
   class="fil7 str0"
   id="_244054120" />
    <ellipse
   style="fill:#ffcccc;stroke:#1f1a17;stroke-width:0.0762"
   ry="2.1607699"
   rx="2.86167"
   cy="228.259"
   cx="108.932"
   class="fil8 str0"
   id="_244054072" />
    <path
   style="fill:#ffffff;stroke:#1f1a17;stroke-width:0.0762"
   inkscape:connector-curvature="0"
   d="m 104.788,239.501 c 3.2636,0 6.8893,-2.4 6.8893,-3.6843 -2.5517,1.5787 -11.2269,1.5787 -13.7786,0 0,1.2843 3.6257,3.6843 6.8893,3.6843 z"
   class="fil5 str0"
   id="_244054024" />
   </g>
  </g>
</svg>